<svg width="32" height="32" viewBox="0 0 32 32" xmlns="http://www.w3.org/2000/svg">
    <path d="M15.603 28c2.005 0 3.716 1.3 4.361 3.116a.64.64 0 0 1-.455.826l-.077.02a.661.661 0 0 1-.776-.427c-.464-1.272-1.657-2.18-3.053-2.18-1.402 0-2.598.915-3.059 2.197a.666.666 0 0 1-.78.43l-.063-.016a.643.643 0 0 1-.466-.828C11.874 29.312 13.59 28 15.603 28zm.404-4c3.621 0 6.722 2.274 7.952 5.47a.636.636 0 0 1-.302.786l-.056.03a.653.653 0 0 1-.915-.337c-1.033-2.695-3.637-4.613-6.68-4.613-3.054 0-5.667 1.934-6.692 4.647a.653.653 0 0 1-.913.341 3.887 3.887 0 0 1-.056-.03.636.636 0 0 1-.305-.783C9.26 26.293 12.37 24 16.007 24zM26.803 4.198a.672.672 0 0 1 .947-.006l.03.029.029.03a.671.671 0 0 1-.008.946l-2.986 2.987c-.156.164-.315.323-.477.477C22.42 10.685 21.37 13.266 21.37 16s1.05 5.315 2.967 7.338c.162.155.322.314.478.478l2.954 2.955a.675.675 0 0 1 .001.954l-.046.045a.675.675 0 0 1-.953 0l-2.955-2.955-.242-.236-.234-.24C21.316 22.42 18.734 21.37 16 21.37s-5.315 1.05-7.339 2.967c-.154.162-.313.321-.477.476l-2.987 2.988a.671.671 0 0 1-.946.006l-.06-.059a.671.671 0 0 1 .008-.946l2.987-2.987c.155-.164.315-.323.477-.479C9.58 21.314 10.63 18.733 10.63 16c0-2.734-1.05-5.315-2.967-7.339a12.938 12.938 0 0 1-.476-.477L4.23 5.229a.675.675 0 0 1-.001-.954l.046-.046a.676.676 0 0 1 .954.001l2.954 2.955c.164.155.322.315.477.476C10.684 9.58 13.266 10.63 16 10.63c2.733 0 5.315-1.05 7.339-2.968.154-.161.312-.32.476-.476zM2.528 8.041C5.725 9.271 8 12.371 8 15.994c0 3.636-2.293 6.747-5.51 7.966a.637.637 0 0 1-.785-.305l-.03-.056a.653.653 0 0 1 .342-.913c2.713-1.025 4.647-3.638 4.647-6.692 0-3.043-1.919-5.647-4.615-6.68a.653.653 0 0 1-.337-.915l.03-.056a.636.636 0 0 1 .786-.302zm27.767.304.03.056a.653.653 0 0 1-.342.913c-2.713 1.025-4.647 3.638-4.647 6.692 0 3.043 1.919 5.647 4.615 6.68.36.138.522.57.337.915l-.03.056a.636.636 0 0 1-.786.302C26.275 22.729 24 19.629 24 16.006c0-3.636 2.293-6.747 5.51-7.966a.637.637 0 0 1 .785.305zM.882 12.035C2.698 12.68 4 14.392 4 16.397c0 2.013-1.312 3.73-3.138 4.368a.643.643 0 0 1-.828-.466l-.016-.063a.666.666 0 0 1 .43-.78c1.282-.46 2.198-1.657 2.198-3.059 0-1.397-.91-2.59-2.183-3.053a.662.662 0 0 1-.427-.776l.02-.077a.64.64 0 0 1 .826-.456zm19.668.258a.67.67 0 0 0-.843-.843A11.86 11.86 0 0 1 16 12.04a11.86 11.86 0 0 1-3.706-.591.67.67 0 0 0-.844.843c.389 1.184.591 2.43.591 3.707a11.87 11.87 0 0 1-.59 3.706.67.67 0 0 0 .843.844A11.871 11.871 0 0 1 16 19.959c1.277 0 2.523.202 3.707.59a.67.67 0 0 0 .843-.843A11.858 11.858 0 0 1 19.96 16c0-1.277.202-2.522.591-3.707zm11.416-.592.016.063a.666.666 0 0 1-.43.78c-1.282.46-2.198 1.657-2.198 3.059 0 1.397.91 2.59 2.183 3.053a.662.662 0 0 1 .427.776l-.02.077a.64.64 0 0 1-.826.456C29.302 19.319 28 17.608 28 15.603c0-2.013 1.312-3.73 3.138-4.369a.643.643 0 0 1 .828.467zM23.6 1.676l.056.03a.637.637 0 0 1 .305.784C22.74 5.707 19.63 8 15.993 8c-3.621 0-6.722-2.274-7.952-5.47a.636.636 0 0 1 .302-.786l.056-.03a.653.653 0 0 1 .915.337c1.033 2.695 3.637 4.613 6.68 4.613 3.054 0 5.667-1.934 6.692-4.647a.653.653 0 0 1 .913-.341zM20.236.018l.064.016c.368.09.59.473.465.828C20.127 2.688 18.41 4 16.397 4 14.392 4 12.68 2.7 12.036.884a.64.64 0 0 1 .454-.826l.078-.02c.33-.081.66.11.775.427.465 1.272 1.657 2.18 3.054 2.18 1.402 0 2.598-.915 3.058-2.197a.666.666 0 0 1 .781-.43z" fill="#FFF" fill-rule="evenodd"/>
</svg>
