<svg width="131" height="32" xmlns="http://www.w3.org/2000/svg">
    <g fill="#243746" fill-rule="evenodd">
        <path d="M15.58 28c2 0 3.71 1.3 4.354 3.116a.64.64 0 0 1-.454.826l-.078.02a.66.66 0 0 1-.774-.427c-.464-1.272-1.654-2.18-3.049-2.18-1.4 0-2.594.915-3.054 2.197a.665.665 0 0 1-.779.43l-.063-.016a.643.643 0 0 1-.466-.828C11.856 29.312 13.57 28 15.58 28zm.402-4c3.616 0 6.712 2.274 7.94 5.47a.636.636 0 0 1-.3.786l-.057.03a.652.652 0 0 1-.914-.337c-1.031-2.695-3.631-4.613-6.669-4.613-3.05 0-5.659 1.934-6.682 4.647a.652.652 0 0 1-.912.341 3.879 3.879 0 0 1-.056-.03.637.637 0 0 1-.304-.783C9.245 26.293 12.351 24 15.982 24zm10.78-19.802a.67.67 0 0 1 .945-.006l.06.059a.672.672 0 0 1-.008.946l-2.982 2.987c-.156.164-.314.323-.476.477-1.915 2.024-2.963 4.605-2.963 7.339s1.048 5.315 2.962 7.338c.162.155.321.314.477.478l2.95 2.955a.676.676 0 0 1 0 .954l-.045.045a.674.674 0 0 1-.952 0l-2.95-2.955-.242-.236-.234-.24c-2.02-1.918-4.598-2.968-7.328-2.968-2.73 0-5.308 1.05-7.328 2.967-.154.162-.313.321-.477.476L5.19 27.802a.67.67 0 0 1-.945.006l-.03-.03-.029-.029a.672.672 0 0 1 .007-.946l2.983-2.987c.155-.164.314-.323.477-.479 1.913-2.023 2.961-4.604 2.961-7.337 0-2.734-1.048-5.315-2.962-7.339a12.928 12.928 0 0 1-.476-.477l-2.95-2.955a.676.676 0 0 1-.002-.954l.046-.046a.674.674 0 0 1 .953.001l2.95 2.955.241.236.234.24c2.02 1.918 4.598 2.968 7.329 2.968 2.73 0 5.308-1.05 7.328-2.968.154-.161.312-.32.476-.476zM2.524 8.041c3.192 1.23 5.464 4.33 5.464 7.953 0 3.636-2.29 6.747-5.503 7.966a.635.635 0 0 1-.782-.305l-.03-.056a.653.653 0 0 1 .341-.913c2.71-1.025 4.64-3.638 4.64-6.692 0-3.043-1.916-5.647-4.608-6.68a.653.653 0 0 1-.337-.915l.03-.056a.635.635 0 0 1 .785-.302zm27.725.304.03.056a.653.653 0 0 1-.342.913c-2.709 1.025-4.64 3.638-4.64 6.692 0 3.043 1.916 5.647 4.608 6.68.36.138.521.57.337.915l-.03.056a.635.635 0 0 1-.784.302c-3.193-1.23-5.465-4.33-5.465-7.953 0-3.636 2.29-6.747 5.503-7.966a.635.635 0 0 1 .783.305zM.88 12.035c1.813.645 3.113 2.357 3.113 4.362 0 2.013-1.31 3.73-3.134 4.368a.642.642 0 0 1-.826-.466l-.016-.063a.666.666 0 0 1 .43-.78c1.279-.46 2.194-1.657 2.194-3.059 0-1.397-.908-2.59-2.18-3.053a.662.662 0 0 1-.426-.776l.02-.077a.639.639 0 0 1 .825-.456zm19.638.258a.67.67 0 0 0-.842-.843 11.825 11.825 0 0 1-3.701.591c-1.275 0-2.519-.202-3.701-.591a.67.67 0 0 0-.842.843c.388 1.184.59 2.43.59 3.707 0 1.277-.202 2.522-.59 3.706a.67.67 0 0 0 .842.844 11.837 11.837 0 0 1 3.7-.591c1.275 0 2.52.202 3.702.59a.67.67 0 0 0 .842-.843 11.875 11.875 0 0 1-.59-3.706c0-1.277.202-2.522.59-3.707zm11.398-.592.016.063a.666.666 0 0 1-.43.78c-1.279.46-2.193 1.657-2.193 3.059 0 1.397.907 2.59 2.179 3.053a.662.662 0 0 1 .426.776l-.02.077a.639.639 0 0 1-.825.456c-1.813-.646-3.113-2.357-3.113-4.362 0-2.013 1.31-3.73 3.134-4.369a.642.642 0 0 1 .826.467zM23.563 1.676l.056.03a.637.637 0 0 1 .304.784C22.706 5.707 19.6 8 15.97 8c-3.616 0-6.712-2.274-7.94-5.47a.637.637 0 0 1 .3-.786l.057-.03a.651.651 0 0 1 .914.337c1.032 2.695 3.631 4.613 6.669 4.613 3.05 0 5.659-1.934 6.682-4.647a.652.652 0 0 1 .912-.341zM20.206.018l.063.016c.368.09.588.473.465.828C20.096 2.688 18.382 4 16.372 4c-2.002 0-3.71-1.3-4.355-3.116a.64.64 0 0 1 .454-.826l.078-.02a.66.66 0 0 1 .774.427c.464 1.272 1.654 2.18 3.049 2.18 1.4 0 2.594-.915 3.054-2.197a.665.665 0 0 1 .78-.43zM54.283 8c1.361 0 2.511.234 3.452.701.94.468 1.701 1.093 2.282 1.875.16.19.215.396.165.615-.05.22-.206.397-.465.53-.2.096-.411.124-.63.085a.938.938 0 0 1-.571-.343 4.877 4.877 0 0 0-1.816-1.388c-.71-.315-1.536-.473-2.477-.473-1.26 0-2.241.258-2.942.774-.7.515-1.05 1.135-1.05 1.86 0 .496.145.93.435 1.302.29.372.765.687 1.426.945.66.258 1.54.463 2.641.615 1.501.191 2.687.515 3.558.973.87.458 1.49.988 1.861 1.59.37.6.555 1.244.555 1.931 0 .897-.3 1.68-.9 2.347-.6.668-1.391 1.179-2.372 1.532-.98.353-2.041.529-3.182.529-1.04 0-2.131-.181-3.272-.544-1.14-.362-2.092-.973-2.852-1.832a.767.767 0 0 1-.195-.615c.03-.22.155-.405.375-.558a.87.87 0 0 1 .646-.143c.184.03.339.104.465.22l.09.095a4.624 4.624 0 0 0 2.116 1.359 9.13 9.13 0 0 0 2.717.387c1.681 0 2.871-.287 3.573-.86.7-.572 1.05-1.24 1.05-2.003 0-.744-.375-1.36-1.125-1.846-.751-.486-1.907-.835-3.468-1.045-2.001-.267-3.482-.782-4.443-1.545-.96-.764-1.44-1.65-1.44-2.662 0-.954.25-1.76.75-2.419.5-.658 1.186-1.154 2.056-1.488.87-.334 1.866-.501 2.987-.501zm15.685 0c1.47 0 2.773.33 3.906.991a6.999 6.999 0 0 1 2.654 2.729c.636 1.159.954 2.495.954 4.007 0 .25-.08.445-.239.59-.159.143-.368.215-.626.215H64.112c.064 1.034.326 1.963.787 2.786a5.842 5.842 0 0 0 2.236 2.255c.955.546 2.047.819 3.28.819.776 0 1.556-.13 2.341-.388.785-.259 1.406-.599 1.864-1.02a.862.862 0 0 1 .581-.244.818.818 0 0 1 .581.186c.219.173.333.365.343.575.01.211-.084.402-.283.575-.637.555-1.466 1.015-2.49 1.379-1.023.363-2.003.545-2.937.545-1.57 0-2.967-.34-4.189-1.02a7.427 7.427 0 0 1-2.878-2.83c-.696-1.205-1.043-2.584-1.043-4.135 0-1.57.328-2.954.984-4.151a7.349 7.349 0 0 1 2.713-2.83C67.155 8.344 68.477 8 69.968 8zm16.654 0c1.449 0 2.75.284 3.908.852a6.477 6.477 0 0 1 2.73 2.484c.664 1.088.996 2.43.996 4.029v7.769c0 .25-.086.457-.256.62a.902.902 0 0 1-.649.246.9.9 0 0 1-.649-.245.822.822 0 0 1-.256-.621v-7.77c0-1.27-.256-2.319-.77-3.147a4.837 4.837 0 0 0-2.082-1.863c-.875-.414-1.866-.62-2.972-.62-1.086 0-2.062.196-2.926.59-.865.396-1.55.94-2.052 1.633a3.887 3.887 0 0 0-.754 2.339v8.838a.85.85 0 0 1-.242.62c-.161.164-.382.246-.663.246a.9.9 0 0 1-.65-.245.822.822 0 0 1-.256-.621V9.069c0-.27.086-.481.257-.636a.932.932 0 0 1 .649-.23c.281 0 .502.076.663.23.161.155.242.366.242.636v1.511a7.063 7.063 0 0 1 2.202-1.757C84.158 8.275 85.335 8 86.622 8zm16.386 0c1.362 0 2.512.234 3.453.701.94.468 1.701 1.093 2.281 1.875.16.19.215.396.165.615-.05.22-.205.397-.465.53-.2.096-.41.124-.63.085a.938.938 0 0 1-.57-.343 4.877 4.877 0 0 0-1.817-1.388c-.71-.315-1.536-.473-2.477-.473-1.26 0-2.24.258-2.941.774-.7.515-1.05 1.135-1.05 1.86 0 .496.144.93.434 1.302.29.372.766.687 1.426.945.66.258 1.541.463 2.642.615 1.5.191 2.687.515 3.557.973.871.458 1.491.988 1.862 1.59.37.6.555 1.244.555 1.931a3.4 3.4 0 0 1-.9 2.347c-.6.668-1.392 1.179-2.372 1.532s-2.042.529-3.182.529c-1.041 0-2.132-.181-3.273-.544-1.14-.362-2.09-.973-2.851-1.832a.765.765 0 0 1-.195-.615c.03-.22.154-.405.375-.558a.87.87 0 0 1 .645-.143c.23.038.415.143.556.315a4.62 4.62 0 0 0 2.116 1.359 9.13 9.13 0 0 0 2.717.387c1.68 0 2.871-.287 3.572-.86.7-.572 1.05-1.24 1.05-2.003 0-.744-.375-1.36-1.125-1.846s-1.906-.835-3.467-1.045c-2.002-.267-3.482-.782-4.443-1.545-.96-.764-1.441-1.65-1.441-2.662 0-.954.25-1.76.75-2.419.5-.658 1.186-1.154 2.057-1.488.87-.334 1.866-.501 2.986-.501zm10.419 0c.248 0 .443.074.585.222.143.149.214.352.214.611v13.533c0 .241-.071.44-.214.598-.142.157-.337.236-.585.236a.758.758 0 0 1-.573-.236.826.826 0 0 1-.226-.598V8.833c0-.259.075-.462.226-.611a.784.784 0 0 1 .573-.222zm16.658 0c.273 0 .478.08.615.236a.823.823 0 0 1 .205.556.909.909 0 0 1-.235.597l-5.188 5.87 5.218 6.58c.254.296.347.546.278.75a.802.802 0 0 1-.366.458c-.176.102-.322.153-.44.153-.234 0-.42-.041-.556-.125a1.895 1.895 0 0 1-.44-.403l-4.929-6.195-5.328 6.473c-.117.167-.323.25-.616.25-.254 0-.46-.074-.615-.222a.825.825 0 0 1-.264-.542.79.79 0 0 1 .205-.598l5.457-6.426-4.812-6.023a.787.787 0 0 1-.205-.597.88.88 0 0 1 .264-.556.83.83 0 0 1 .615-.236c.254 0 .47.083.645.25l4.7 5.924 4.883-5.674c.156-.166.308-.292.454-.375a.91.91 0 0 1 .455-.125zM69.968 9.609c-1.133 0-2.142.273-3.026.818a5.76 5.76 0 0 0-2.088 2.255 6.577 6.577 0 0 0-.704 2.356h11.61a6.41 6.41 0 0 0-.634-2.356 5.45 5.45 0 0 0-2.042-2.255c-.885-.545-1.923-.818-3.116-.818z"/>
    </g>
</svg>
