<svg width="32" height="32" xmlns="http://www.w3.org/2000/svg">
    <g fill-rule="nonzero" fill="none">
        <path d="M22.8 23.48a.92.92 0 0 1 .1 1.835l-.1.005H9.2a.92.92 0 0 1-.1-1.835l.1-.005h13.6zm2.924-20.636a.92.92 0 0 1 .285 1.194l-.053.086-2.087 3.014.033.025A12.979 12.979 0 0 1 29 17.486a1 1 0 0 1-.898.995l-.102.005-8.24.001a4.12 4.12 0 0 1-7.52 0H4a1 1 0 0 1-1-1c0-7.18 5.82-13 13-13 .942 0 1.871.1 2.777.297a1 1 0 0 1-.426 1.954c-.599-.13-1.21-.21-1.831-.24V8.4a.92.92 0 0 1-1.835.1l-.005-.1V6.565a10.987 10.987 0 0 0-7.318 4.11l1.522.943a.92.92 0 0 1-.88 1.612l-.088-.048-1.57-.972a10.928 10.928 0 0 0-1.278 4.046l-.023.23h6.847a4.12 4.12 0 0 1 5.686-3.493l6.866-9.917a.92.92 0 0 1 1.28-.232zM16 14.52a2.28 2.28 0 1 0 2.207 2.855l-.007.111a1 1 0 0 1 .043-.29A2.28 2.28 0 0 0 16 14.52zm6.73-5.735-3.653 5.275a4.103 4.103 0 0 1 1.031 2.426h6.846l-.017-.179a10.956 10.956 0 0 0-1.283-4.098l-1.57.973-.088.048a.92.92 0 0 1-.88-1.612l1.522-.944a11.053 11.053 0 0 0-1.908-1.89z" fill="#B5CDC2"/>
        <path d="M0 0h32v32H0z"/>
    </g>
</svg>
